# Blender 4.2.1 LTS
# www.blender.org
o Cube.001
v 0.000000 0.000000 0.000000
v 0.000000 0.000000 0.000000
v 0.000000 0.000000 0.000000
v 0.000000 0.000000 0.000000
v 0.000000 0.000000 0.000000
v 0.000000 0.000000 0.000000
v 0.000000 0.000000 0.000000
v 0.000000 0.000000 0.000000
vn -0.0000 1.0000 -0.0000
vt 0.375000 0.000000
vt 0.625000 0.000000
vt 0.625000 0.250000
vt 0.375000 0.250000
vt 0.625000 0.500000
vt 0.375000 0.500000
vt 0.625000 0.750000
vt 0.375000 0.750000
vt 0.625000 1.000000
vt 0.375000 1.000000
vt 0.125000 0.500000
vt 0.125000 0.750000
vt 0.875000 0.500000
vt 0.875000 0.750000
s 0
f 1/1/1 2/2/1 4/3/1 3/4/1
f 3/4/1 4/3/1 8/5/1 7/6/1
f 7/6/1 8/5/1 6/7/1 5/8/1
f 5/8/1 6/7/1 2/9/1 1/10/1
f 3/11/1 7/6/1 5/8/1 1/12/1
f 8/5/1 4/13/1 2/14/1 6/7/1
o Cube.002
v -22.211555 26.849968 0.088332
v -22.401802 26.849968 0.088356
v -22.211555 -26.438139 0.088336
v -22.401802 -26.438139 0.088360
v -22.210007 26.849968 12.330601
v -22.400255 26.849968 12.330624
v -22.210007 -26.438139 12.330605
v -22.400255 -26.438139 12.330627
vn 1.0000 -0.0000 -0.0001
vn -0.0000 -1.0000 -0.0000
vn 0.0001 -0.0000 1.0000
vn -1.0000 -0.0000 0.0001
vn -0.0001 -0.0000 -1.0000
vn -0.0000 1.0000 -0.0000
vt 0.625000 0.500000
vt 0.875000 0.500000
vt 0.875000 0.750000
vt 0.625000 0.750000
vt 0.375000 0.750000
vt 0.625000 1.000000
vt 0.375000 1.000000
vt 0.375000 0.000000
vt 0.625000 0.000000
vt 0.625000 0.250000
vt 0.375000 0.250000
vt 0.125000 0.500000
vt 0.375000 0.500000
vt 0.125000 0.750000
s 0
f 9/15/2 13/16/2 15/17/2 11/18/2
f 12/19/3 11/18/3 15/20/3 16/21/3
f 16/22/4 15/23/4 13/24/4 14/25/4
f 14/26/5 10/27/5 12/19/5 16/28/5
f 10/27/6 9/15/6 11/18/6 12/19/6
f 14/25/7 13/24/7 9/15/7 10/27/7
o Cube.003
v 22.440269 27.042028 -0.104652
v 22.250023 27.042028 -0.104628
v 22.440269 -26.518732 -0.104648
v 22.250023 -26.518732 -0.104624
v 22.441818 27.042028 12.137617
v 22.251572 27.042028 12.137640
v 22.441818 -26.518732 12.137621
v 22.251572 -26.518732 12.137644
vn 1.0000 -0.0000 -0.0001
vn -0.0000 -1.0000 -0.0000
vn 0.0001 -0.0000 1.0000
vn -1.0000 -0.0000 0.0001
vn -0.0001 -0.0000 -1.0000
vn -0.0000 1.0000 -0.0000
vt 0.625000 0.500000
vt 0.875000 0.500000
vt 0.875000 0.750000
vt 0.625000 0.750000
vt 0.375000 0.750000
vt 0.625000 1.000000
vt 0.375000 1.000000
vt 0.375000 0.000000
vt 0.625000 0.000000
vt 0.625000 0.250000
vt 0.375000 0.250000
vt 0.125000 0.500000
vt 0.375000 0.500000
vt 0.125000 0.750000
s 0
f 17/29/8 21/30/8 23/31/8 19/32/8
f 20/33/9 19/32/9 23/34/9 24/35/9
f 24/36/10 23/37/10 21/38/10 22/39/10
f 22/40/11 18/41/11 20/33/11 24/42/11
f 18/41/12 17/29/12 19/32/12 20/33/12
f 22/39/13 21/38/13 17/29/13 18/41/13
o Cube.004
v -22.596352 26.006927 -0.104650
v -22.577467 25.816750 -0.104626
v 22.615170 26.330442 -0.104650
v 22.634058 26.140263 -0.104626
v -22.596504 26.008476 12.137619
v -22.577620 25.818298 12.137642
v 22.615017 26.331989 12.137619
v 22.633905 26.141811 12.137642
vn -0.0072 1.0000 -0.0001
vn 0.9951 0.0988 -0.0000
vn -0.0000 0.0001 1.0000
vn 0.0072 -1.0000 0.0001
vn -0.0000 -0.0001 -1.0000
vn -0.9951 -0.0988 -0.0000
vt 0.625000 0.500000
vt 0.875000 0.500000
vt 0.875000 0.750000
vt 0.625000 0.750000
vt 0.375000 0.750000
vt 0.625000 1.000000
vt 0.375000 1.000000
vt 0.375000 0.000000
vt 0.625000 0.000000
vt 0.625000 0.250000
vt 0.375000 0.250000
vt 0.125000 0.500000
vt 0.375000 0.500000
vt 0.125000 0.750000
s 0
f 25/43/14 29/44/14 31/45/14 27/46/14
f 28/47/15 27/46/15 31/48/15 32/49/15
f 32/50/16 31/51/16 29/52/16 30/53/16
f 30/54/17 26/55/17 28/47/17 32/56/17
f 26/55/18 25/43/18 27/46/18 28/47/18
f 30/53/19 29/52/19 25/43/19 26/55/19
o Cube.005
v 15.640157 -2.973413 2.372780
v 15.640157 -2.973413 0.521084
v 15.640157 -4.706652 2.372780
v 15.640157 -4.706652 0.521084
v 22.475588 -2.973413 2.372780
v 22.475588 -2.973413 0.521084
v 22.475588 -4.706652 2.372780
v 22.475588 -4.706652 0.521084
vn -1.0000 -0.0000 -0.0000
vn -0.0000 -1.0000 -0.0000
vn 1.0000 -0.0000 -0.0000
vn -0.0000 1.0000 -0.0000
vn -0.0000 -0.0000 1.0000
vn -0.0000 -0.0000 -1.0000
vt 0.375000 0.000000
vt 0.625000 0.000000
vt 0.625000 0.250000
vt 0.375000 0.250000
vt 0.625000 0.500000
vt 0.375000 0.500000
vt 0.625000 0.750000
vt 0.375000 0.750000
vt 0.625000 1.000000
vt 0.375000 1.000000
vt 0.125000 0.500000
vt 0.125000 0.750000
vt 0.875000 0.500000
vt 0.875000 0.750000
s 0
f 33/57/20 34/58/20 36/59/20 35/60/20
f 35/60/21 36/59/21 40/61/21 39/62/21
f 39/62/22 40/61/22 38/63/22 37/64/22
f 37/64/23 38/63/23 34/65/23 33/66/23
f 35/67/24 39/62/24 37/64/24 33/68/24
f 40/61/25 36/69/25 34/70/25 38/63/25
o Cube.006
v 15.627262 0.466136 4.883933
v 15.627262 0.466136 3.032237
v 15.627262 -1.267103 4.883933
v 15.627262 -1.267104 3.032237
v 22.462694 0.466136 4.883933
v 22.462694 0.466136 3.032237
v 22.462694 -1.267103 4.883933
v 22.462694 -1.267104 3.032237
vn -1.0000 -0.0000 -0.0000
vn -0.0000 -1.0000 -0.0000
vn 1.0000 -0.0000 -0.0000
vn -0.0000 1.0000 -0.0000
vn -0.0000 -0.0000 1.0000
vn -0.0000 -0.0000 -1.0000
vt 0.375000 0.000000
vt 0.625000 0.000000
vt 0.625000 0.250000
vt 0.375000 0.250000
vt 0.625000 0.500000
vt 0.375000 0.500000
vt 0.625000 0.750000
vt 0.375000 0.750000
vt 0.625000 1.000000
vt 0.375000 1.000000
vt 0.125000 0.500000
vt 0.125000 0.750000
vt 0.875000 0.500000
vt 0.875000 0.750000
s 0
f 41/71/26 42/72/26 44/73/26 43/74/26
f 43/74/27 44/73/27 48/75/27 47/76/27
f 47/76/28 48/75/28 46/77/28 45/78/28
f 45/78/29 46/77/29 42/79/29 41/80/29
f 43/81/30 47/76/30 45/78/30 41/82/30
f 48/75/31 44/83/31 42/84/31 46/77/31
o Cube.007
v 15.626426 3.885617 7.064566
v 15.626426 3.885617 5.212870
v 15.626426 2.152377 7.064566
v 15.626426 2.152377 5.212870
v 22.461857 3.885617 7.064566
v 22.461857 3.885617 5.212870
v 22.461857 2.152377 7.064566
v 22.461857 2.152377 5.212870
vn -1.0000 -0.0000 -0.0000
vn -0.0000 -1.0000 -0.0000
vn 1.0000 -0.0000 -0.0000
vn -0.0000 1.0000 -0.0000
vn -0.0000 -0.0000 1.0000
vn -0.0000 -0.0000 -1.0000
vt 0.375000 0.000000
vt 0.625000 0.000000
vt 0.625000 0.250000
vt 0.375000 0.250000
vt 0.625000 0.500000
vt 0.375000 0.500000
vt 0.625000 0.750000
vt 0.375000 0.750000
vt 0.625000 1.000000
vt 0.375000 1.000000
vt 0.125000 0.500000
vt 0.125000 0.750000
vt 0.875000 0.500000
vt 0.875000 0.750000
s 0
f 49/85/32 50/86/32 52/87/32 51/88/32
f 51/88/33 52/87/33 56/89/33 55/90/33
f 55/90/34 56/89/34 54/91/34 53/92/34
f 53/92/35 54/91/35 50/93/35 49/94/35
f 51/95/36 55/90/36 53/92/36 49/96/36
f 56/89/37 52/97/37 50/98/37 54/91/37
o map1
v 22.399998 26.472036 0.095121
v 22.399998 26.472036 -0.095125
v 22.399998 -26.472036 0.095125
v 22.399998 -26.472036 -0.095121
v -22.399998 26.472036 0.095121
v -22.399998 26.472036 -0.095125
v -22.399998 -26.472036 0.095125
v -22.399998 -26.472036 -0.095121
vn -0.0000 -0.0000 1.0000
vn -0.0000 -1.0000 -0.0000
vn -1.0000 -0.0000 -0.0000
vn -0.0000 -0.0000 -1.0000
vn 1.0000 -0.0000 -0.0000
vn -0.0000 1.0000 -0.0000
vt 0.625000 0.500000
vt 0.875000 0.500000
vt 0.875000 0.750000
vt 0.625000 0.750000
vt 0.375000 0.750000
vt 0.625000 1.000000
vt 0.375000 1.000000
vt 0.375000 0.000000
vt 0.625000 0.000000
vt 0.625000 0.250000
vt 0.375000 0.250000
vt 0.125000 0.500000
vt 0.375000 0.500000
vt 0.125000 0.750000
s 0
f 57/99/38 61/100/38 63/101/38 59/102/38
f 60/103/39 59/102/39 63/104/39 64/105/39
f 64/106/40 63/107/40 61/108/40 62/109/40
f 62/110/41 58/111/41 60/103/41 64/112/41
f 58/111/42 57/99/42 59/102/42 60/103/42
f 62/109/43 61/108/43 57/99/43 58/111/43
o Cube.008
v -22.381100 3.885617 7.064566
v -22.381100 3.885617 5.212870
v -22.381100 2.152377 7.064566
v -22.381100 2.152377 5.212870
v -15.545668 3.885617 7.064566
v -15.545668 3.885617 5.212870
v -15.545668 2.152377 7.064566
v -15.545668 2.152377 5.212870
vn -1.0000 -0.0000 -0.0000
vn -0.0000 -1.0000 -0.0000
vn 1.0000 -0.0000 -0.0000
vn -0.0000 1.0000 -0.0000
vn -0.0000 -0.0000 1.0000
vn -0.0000 -0.0000 -1.0000
vt 0.375000 0.000000
vt 0.625000 0.000000
vt 0.625000 0.250000
vt 0.375000 0.250000
vt 0.625000 0.500000
vt 0.375000 0.500000
vt 0.625000 0.750000
vt 0.375000 0.750000
vt 0.625000 1.000000
vt 0.375000 1.000000
vt 0.125000 0.500000
vt 0.125000 0.750000
vt 0.875000 0.500000
vt 0.875000 0.750000
s 0
f 65/113/44 66/114/44 68/115/44 67/116/44
f 67/116/45 68/115/45 72/117/45 71/118/45
f 71/118/46 72/117/46 70/119/46 69/120/46
f 69/120/47 70/119/47 66/121/47 65/122/47
f 67/123/48 71/118/48 69/120/48 65/124/48
f 72/117/49 68/125/49 66/126/49 70/119/49
o Cube.009
v -22.380262 0.466136 4.883933
v -22.380262 0.466136 3.032237
v -22.380262 -1.267103 4.883933
v -22.380262 -1.267104 3.032237
v -15.544830 0.466136 4.883933
v -15.544830 0.466136 3.032237
v -15.544830 -1.267103 4.883933
v -15.544830 -1.267104 3.032237
vn -1.0000 -0.0000 -0.0000
vn -0.0000 -1.0000 -0.0000
vn 1.0000 -0.0000 -0.0000
vn -0.0000 1.0000 -0.0000
vn -0.0000 -0.0000 1.0000
vn -0.0000 -0.0000 -1.0000
vt 0.375000 0.000000
vt 0.625000 0.000000
vt 0.625000 0.250000
vt 0.375000 0.250000
vt 0.625000 0.500000
vt 0.375000 0.500000
vt 0.625000 0.750000
vt 0.375000 0.750000
vt 0.625000 1.000000
vt 0.375000 1.000000
vt 0.125000 0.500000
vt 0.125000 0.750000
vt 0.875000 0.500000
vt 0.875000 0.750000
s 0
f 73/127/50 74/128/50 76/129/50 75/130/50
f 75/130/51 76/129/51 80/131/51 79/132/51
f 79/132/52 80/131/52 78/133/52 77/134/52
f 77/134/53 78/133/53 74/135/53 73/136/53
f 75/137/54 79/132/54 77/134/54 73/138/54
f 80/131/55 76/139/55 74/140/55 78/133/55
o Cube.010
v -22.367369 -2.973413 2.372780
v -22.367369 -2.973413 0.521084
v -22.367369 -4.706652 2.372780
v -22.367369 -4.706652 0.521084
v -15.531937 -2.973413 2.372780
v -15.531937 -2.973413 0.521084
v -15.531937 -4.706652 2.372780
v -15.531937 -4.706652 0.521084
vn -1.0000 -0.0000 -0.0000
vn -0.0000 -1.0000 -0.0000
vn 1.0000 -0.0000 -0.0000
vn -0.0000 1.0000 -0.0000
vn -0.0000 -0.0000 1.0000
vn -0.0000 -0.0000 -1.0000
vt 0.375000 0.000000
vt 0.625000 0.000000
vt 0.625000 0.250000
vt 0.375000 0.250000
vt 0.625000 0.500000
vt 0.375000 0.500000
vt 0.625000 0.750000
vt 0.375000 0.750000
vt 0.625000 1.000000
vt 0.375000 1.000000
vt 0.125000 0.500000
vt 0.125000 0.750000
vt 0.875000 0.500000
vt 0.875000 0.750000
s 0
f 81/141/56 82/142/56 84/143/56 83/144/56
f 83/144/57 84/143/57 88/145/57 87/146/57
f 87/146/58 88/145/58 86/147/58 85/148/58
f 85/148/59 86/147/59 82/149/59 81/150/59
f 83/151/60 87/146/60 85/148/60 81/152/60
f 88/145/61 84/153/61 82/154/61 86/147/61
o map1.001
v 22.399996 26.440346 9.268540
v 22.399996 26.440346 9.181088
v 22.399996 5.442365 9.268542
v 22.399996 5.442365 9.181090
v -22.399996 26.440346 9.268540
v -22.399996 26.440346 9.181088
v -22.399996 5.442365 9.268542
v -22.399996 5.442365 9.181090
vn -0.0000 -0.0000 1.0000
vn -0.0000 -1.0000 -0.0000
vn -1.0000 -0.0000 -0.0000
vn -0.0000 -0.0000 -1.0000
vn 1.0000 -0.0000 -0.0000
vn -0.0000 1.0000 -0.0000
vt 0.625000 0.500000
vt 0.875000 0.500000
vt 0.875000 0.750000
vt 0.625000 0.750000
vt 0.375000 0.750000
vt 0.625000 1.000000
vt 0.375000 1.000000
vt 0.375000 0.000000
vt 0.625000 0.000000
vt 0.625000 0.250000
vt 0.375000 0.250000
vt 0.125000 0.500000
vt 0.375000 0.500000
vt 0.125000 0.750000
s 0
f 89/155/62 93/156/62 95/157/62 91/158/62
f 92/159/63 91/158/63 95/160/63 96/161/63
f 96/162/64 95/163/64 93/164/64 94/165/64
f 94/166/65 90/167/65 92/159/65 96/168/65
f 90/167/66 89/155/66 91/158/66 92/159/66
f 94/165/67 93/164/67 89/155/67 90/167/67
